<mxfile host="app.diagrams.net" modified="2023-07-28T10:09:17.400Z" agent="Mozilla/5.0 (Windows NT 10.0; Win64; x64) AppleWebKit/537.36 (KHTML, like Gecko) Chrome/115.0.0.0 Safari/537.36 Edg/115.0.1901.183" etag="vTLDm_4OHHXA72iKW-sz" version="21.6.5" type="github">
  <diagram name="第 1 页" id="N14zd92lQUzsIEnuKMpZ">
    <mxGraphModel dx="1166" dy="775" grid="1" gridSize="10" guides="1" tooltips="1" connect="1" arrows="1" fold="1" page="1" pageScale="1" pageWidth="827" pageHeight="1169" math="0" shadow="0">
      <root>
        <mxCell id="0" />
        <mxCell id="1" parent="0" />
        <mxCell id="aWpefqUCa4IatEm7Ps58-1" value="个人中心" style="shape=umlLifeline;perimeter=lifelinePerimeter;whiteSpace=wrap;html=1;container=1;dropTarget=0;collapsible=0;recursiveResize=0;outlineConnect=0;portConstraint=eastwest;newEdgeStyle={&quot;edgeStyle&quot;:&quot;elbowEdgeStyle&quot;,&quot;elbow&quot;:&quot;vertical&quot;,&quot;curved&quot;:0,&quot;rounded&quot;:0};" vertex="1" parent="1">
          <mxGeometry x="60" y="70" width="100" height="690" as="geometry" />
        </mxCell>
        <mxCell id="aWpefqUCa4IatEm7Ps58-2" value="" style="html=1;points=[];perimeter=orthogonalPerimeter;outlineConnect=0;targetShapes=umlLifeline;portConstraint=eastwest;newEdgeStyle={&quot;edgeStyle&quot;:&quot;elbowEdgeStyle&quot;,&quot;elbow&quot;:&quot;vertical&quot;,&quot;curved&quot;:0,&quot;rounded&quot;:0};" vertex="1" parent="aWpefqUCa4IatEm7Ps58-1">
          <mxGeometry x="45" y="60" width="10" height="80" as="geometry" />
        </mxCell>
        <mxCell id="aWpefqUCa4IatEm7Ps58-45" value="" style="html=1;points=[];perimeter=orthogonalPerimeter;outlineConnect=0;targetShapes=umlLifeline;portConstraint=eastwest;newEdgeStyle={&quot;edgeStyle&quot;:&quot;elbowEdgeStyle&quot;,&quot;elbow&quot;:&quot;vertical&quot;,&quot;curved&quot;:0,&quot;rounded&quot;:0};" vertex="1" parent="aWpefqUCa4IatEm7Ps58-1">
          <mxGeometry x="45" y="620" width="10" height="60" as="geometry" />
        </mxCell>
        <mxCell id="aWpefqUCa4IatEm7Ps58-47" value="展示还款计划" style="html=1;align=left;spacingLeft=2;endArrow=block;rounded=0;edgeStyle=orthogonalEdgeStyle;curved=0;rounded=0;" edge="1" parent="aWpefqUCa4IatEm7Ps58-1" source="aWpefqUCa4IatEm7Ps58-45" target="aWpefqUCa4IatEm7Ps58-45">
          <mxGeometry x="-0.8889" y="10" relative="1" as="geometry">
            <mxPoint x="60" y="660" as="sourcePoint" />
            <Array as="points">
              <mxPoint x="95" y="660" />
              <mxPoint x="95" y="680" />
            </Array>
            <mxPoint x="60" y="680" as="targetPoint" />
            <mxPoint as="offset" />
          </mxGeometry>
        </mxCell>
        <mxCell id="aWpefqUCa4IatEm7Ps58-3" value="试算申请" style="html=1;verticalAlign=bottom;startArrow=oval;startFill=1;endArrow=block;startSize=8;edgeStyle=elbowEdgeStyle;elbow=vertical;curved=0;rounded=0;" edge="1" parent="1" target="aWpefqUCa4IatEm7Ps58-2">
          <mxGeometry width="60" relative="1" as="geometry">
            <mxPoint x="40" y="140" as="sourcePoint" />
            <mxPoint x="100" y="140" as="targetPoint" />
            <mxPoint as="offset" />
          </mxGeometry>
        </mxCell>
        <mxCell id="aWpefqUCa4IatEm7Ps58-4" value="配置管理" style="shape=umlLifeline;perimeter=lifelinePerimeter;whiteSpace=wrap;html=1;container=1;dropTarget=0;collapsible=0;recursiveResize=0;outlineConnect=0;portConstraint=eastwest;newEdgeStyle={&quot;edgeStyle&quot;:&quot;elbowEdgeStyle&quot;,&quot;elbow&quot;:&quot;vertical&quot;,&quot;curved&quot;:0,&quot;rounded&quot;:0};" vertex="1" parent="1">
          <mxGeometry x="670" y="70" width="80" height="690" as="geometry" />
        </mxCell>
        <mxCell id="aWpefqUCa4IatEm7Ps58-5" value="" style="html=1;points=[];perimeter=orthogonalPerimeter;outlineConnect=0;targetShapes=umlLifeline;portConstraint=eastwest;newEdgeStyle={&quot;edgeStyle&quot;:&quot;elbowEdgeStyle&quot;,&quot;elbow&quot;:&quot;vertical&quot;,&quot;curved&quot;:0,&quot;rounded&quot;:0};" vertex="1" parent="aWpefqUCa4IatEm7Ps58-4">
          <mxGeometry x="35" y="110" width="10" height="70" as="geometry" />
        </mxCell>
        <mxCell id="aWpefqUCa4IatEm7Ps58-26" value="" style="html=1;points=[];perimeter=orthogonalPerimeter;outlineConnect=0;targetShapes=umlLifeline;portConstraint=eastwest;newEdgeStyle={&quot;edgeStyle&quot;:&quot;elbowEdgeStyle&quot;,&quot;elbow&quot;:&quot;vertical&quot;,&quot;curved&quot;:0,&quot;rounded&quot;:0};" vertex="1" parent="aWpefqUCa4IatEm7Ps58-4">
          <mxGeometry x="35" y="340" width="10" height="40" as="geometry" />
        </mxCell>
        <mxCell id="aWpefqUCa4IatEm7Ps58-40" value="" style="html=1;points=[];perimeter=orthogonalPerimeter;outlineConnect=0;targetShapes=umlLifeline;portConstraint=eastwest;newEdgeStyle={&quot;edgeStyle&quot;:&quot;elbowEdgeStyle&quot;,&quot;elbow&quot;:&quot;vertical&quot;,&quot;curved&quot;:0,&quot;rounded&quot;:0};" vertex="1" parent="aWpefqUCa4IatEm7Ps58-4">
          <mxGeometry x="35" y="495" width="10" height="45" as="geometry" />
        </mxCell>
        <mxCell id="aWpefqUCa4IatEm7Ps58-6" value="组装发送报文" style="html=1;verticalAlign=bottom;endArrow=block;edgeStyle=elbowEdgeStyle;elbow=vertical;curved=0;rounded=0;" edge="1" parent="1" target="aWpefqUCa4IatEm7Ps58-11">
          <mxGeometry x="-0.0091" y="-1" width="80" relative="1" as="geometry">
            <mxPoint x="115" y="160" as="sourcePoint" />
            <mxPoint x="225" y="160" as="targetPoint" />
            <mxPoint as="offset" />
            <Array as="points" />
          </mxGeometry>
        </mxCell>
        <mxCell id="aWpefqUCa4IatEm7Ps58-8" value="返回收妥" style="html=1;verticalAlign=bottom;endArrow=open;dashed=1;endSize=8;edgeStyle=elbowEdgeStyle;elbow=vertical;curved=0;rounded=0;" edge="1" parent="1" source="aWpefqUCa4IatEm7Ps58-11">
          <mxGeometry relative="1" as="geometry">
            <mxPoint x="220" y="190" as="sourcePoint" />
            <mxPoint x="115" y="190" as="targetPoint" />
          </mxGeometry>
        </mxCell>
        <mxCell id="aWpefqUCa4IatEm7Ps58-10" value="关键日试算" style="shape=umlLifeline;perimeter=lifelinePerimeter;whiteSpace=wrap;html=1;container=1;dropTarget=0;collapsible=0;recursiveResize=0;outlineConnect=0;portConstraint=eastwest;newEdgeStyle={&quot;edgeStyle&quot;:&quot;elbowEdgeStyle&quot;,&quot;elbow&quot;:&quot;vertical&quot;,&quot;curved&quot;:0,&quot;rounded&quot;:0};" vertex="1" parent="1">
          <mxGeometry x="230" y="70" width="80" height="690" as="geometry" />
        </mxCell>
        <mxCell id="aWpefqUCa4IatEm7Ps58-11" value="" style="html=1;points=[];perimeter=orthogonalPerimeter;outlineConnect=0;targetShapes=umlLifeline;portConstraint=eastwest;newEdgeStyle={&quot;edgeStyle&quot;:&quot;elbowEdgeStyle&quot;,&quot;elbow&quot;:&quot;vertical&quot;,&quot;curved&quot;:0,&quot;rounded&quot;:0};" vertex="1" parent="aWpefqUCa4IatEm7Ps58-10">
          <mxGeometry x="35" y="90" width="10" height="230" as="geometry" />
        </mxCell>
        <mxCell id="aWpefqUCa4IatEm7Ps58-15" value="核心试算" style="shape=umlLifeline;perimeter=lifelinePerimeter;whiteSpace=wrap;html=1;container=1;dropTarget=0;collapsible=0;recursiveResize=0;outlineConnect=0;portConstraint=eastwest;newEdgeStyle={&quot;edgeStyle&quot;:&quot;elbowEdgeStyle&quot;,&quot;elbow&quot;:&quot;vertical&quot;,&quot;curved&quot;:0,&quot;rounded&quot;:0};" vertex="1" parent="1">
          <mxGeometry x="360" y="70" width="80" height="690" as="geometry" />
        </mxCell>
        <mxCell id="aWpefqUCa4IatEm7Ps58-16" value="" style="html=1;points=[];perimeter=orthogonalPerimeter;outlineConnect=0;targetShapes=umlLifeline;portConstraint=eastwest;newEdgeStyle={&quot;edgeStyle&quot;:&quot;elbowEdgeStyle&quot;,&quot;elbow&quot;:&quot;vertical&quot;,&quot;curved&quot;:0,&quot;rounded&quot;:0};" vertex="1" parent="aWpefqUCa4IatEm7Ps58-15">
          <mxGeometry x="35" y="265" width="10" height="385" as="geometry" />
        </mxCell>
        <mxCell id="aWpefqUCa4IatEm7Ps58-20" value="利率试算" style="shape=umlLifeline;perimeter=lifelinePerimeter;whiteSpace=wrap;html=1;container=1;dropTarget=0;collapsible=0;recursiveResize=0;outlineConnect=0;portConstraint=eastwest;newEdgeStyle={&quot;edgeStyle&quot;:&quot;elbowEdgeStyle&quot;,&quot;elbow&quot;:&quot;vertical&quot;,&quot;curved&quot;:0,&quot;rounded&quot;:0};" vertex="1" parent="1">
          <mxGeometry x="510" y="70" width="80" height="690" as="geometry" />
        </mxCell>
        <mxCell id="aWpefqUCa4IatEm7Ps58-38" value="" style="html=1;points=[];perimeter=orthogonalPerimeter;outlineConnect=0;targetShapes=umlLifeline;portConstraint=eastwest;newEdgeStyle={&quot;edgeStyle&quot;:&quot;elbowEdgeStyle&quot;,&quot;elbow&quot;:&quot;vertical&quot;,&quot;curved&quot;:0,&quot;rounded&quot;:0};" vertex="1" parent="aWpefqUCa4IatEm7Ps58-20">
          <mxGeometry x="35" y="470" width="10" height="120" as="geometry" />
        </mxCell>
        <mxCell id="aWpefqUCa4IatEm7Ps58-28" value="请求获取关键日计算配置信息" style="html=1;verticalAlign=bottom;endArrow=block;edgeStyle=elbowEdgeStyle;elbow=vertical;curved=0;rounded=0;" edge="1" parent="1" target="aWpefqUCa4IatEm7Ps58-5">
          <mxGeometry x="-0.0091" y="-1" width="80" relative="1" as="geometry">
            <mxPoint x="275" y="200" as="sourcePoint" />
            <mxPoint x="650" y="200" as="targetPoint" />
            <mxPoint as="offset" />
            <Array as="points" />
          </mxGeometry>
        </mxCell>
        <mxCell id="aWpefqUCa4IatEm7Ps58-29" value="返回配置信息" style="html=1;verticalAlign=bottom;endArrow=open;dashed=1;endSize=8;edgeStyle=elbowEdgeStyle;elbow=vertical;curved=0;rounded=0;" edge="1" parent="1" source="aWpefqUCa4IatEm7Ps58-5">
          <mxGeometry relative="1" as="geometry">
            <mxPoint x="655" y="230" as="sourcePoint" />
            <mxPoint x="275" y="230" as="targetPoint" />
          </mxGeometry>
        </mxCell>
        <mxCell id="aWpefqUCa4IatEm7Ps58-30" value="账单周期试算" style="html=1;align=left;spacingLeft=2;endArrow=block;rounded=0;edgeStyle=orthogonalEdgeStyle;curved=0;rounded=0;" edge="1" parent="1">
          <mxGeometry x="-0.8889" y="10" relative="1" as="geometry">
            <mxPoint x="275" y="260" as="sourcePoint" />
            <Array as="points">
              <mxPoint x="310" y="260" />
              <mxPoint x="310" y="280" />
            </Array>
            <mxPoint x="275" y="280" as="targetPoint" />
            <mxPoint as="offset" />
          </mxGeometry>
        </mxCell>
        <mxCell id="aWpefqUCa4IatEm7Ps58-31" value="下个账单日试算" style="html=1;align=left;spacingLeft=2;endArrow=block;rounded=0;edgeStyle=orthogonalEdgeStyle;curved=0;rounded=0;" edge="1" parent="1">
          <mxGeometry x="-0.8889" y="10" relative="1" as="geometry">
            <mxPoint x="275" y="310" as="sourcePoint" />
            <Array as="points">
              <mxPoint x="310" y="310" />
              <mxPoint x="310" y="330" />
            </Array>
            <mxPoint x="275" y="330" as="targetPoint" />
            <mxPoint as="offset" />
          </mxGeometry>
        </mxCell>
        <mxCell id="aWpefqUCa4IatEm7Ps58-33" value="发送关键日信息" style="html=1;verticalAlign=bottom;endArrow=block;edgeStyle=elbowEdgeStyle;elbow=vertical;curved=0;rounded=0;" edge="1" parent="1">
          <mxGeometry x="0.0826" y="5" width="80" relative="1" as="geometry">
            <mxPoint x="275" y="354.5" as="sourcePoint" />
            <mxPoint x="395" y="354.5" as="targetPoint" />
            <mxPoint x="1" as="offset" />
          </mxGeometry>
        </mxCell>
        <mxCell id="aWpefqUCa4IatEm7Ps58-34" value="返回接收成功" style="html=1;verticalAlign=bottom;endArrow=open;dashed=1;endSize=8;edgeStyle=elbowEdgeStyle;elbow=vertical;curved=0;rounded=0;" edge="1" parent="1">
          <mxGeometry relative="1" as="geometry">
            <mxPoint x="395" y="390" as="sourcePoint" />
            <mxPoint x="275" y="390" as="targetPoint" />
          </mxGeometry>
        </mxCell>
        <mxCell id="aWpefqUCa4IatEm7Ps58-35" value="请求核心试算配置信息" style="html=1;verticalAlign=bottom;endArrow=block;edgeStyle=elbowEdgeStyle;elbow=vertical;curved=0;rounded=0;" edge="1" parent="1" target="aWpefqUCa4IatEm7Ps58-4">
          <mxGeometry x="0.0826" y="5" width="80" relative="1" as="geometry">
            <mxPoint x="405" y="410" as="sourcePoint" />
            <mxPoint x="680" y="410" as="targetPoint" />
            <mxPoint x="1" as="offset" />
          </mxGeometry>
        </mxCell>
        <mxCell id="aWpefqUCa4IatEm7Ps58-36" value="返回配置信息" style="html=1;verticalAlign=bottom;endArrow=open;dashed=1;endSize=8;edgeStyle=elbowEdgeStyle;elbow=vertical;curved=0;rounded=0;" edge="1" parent="1">
          <mxGeometry relative="1" as="geometry">
            <mxPoint x="710" y="450" as="sourcePoint" />
            <mxPoint x="405" y="450" as="targetPoint" />
          </mxGeometry>
        </mxCell>
        <mxCell id="aWpefqUCa4IatEm7Ps58-37" value="首个账单日试算" style="html=1;align=left;spacingLeft=2;endArrow=block;rounded=0;edgeStyle=orthogonalEdgeStyle;curved=0;rounded=0;" edge="1" parent="1">
          <mxGeometry x="-0.8889" y="10" relative="1" as="geometry">
            <mxPoint x="405" y="480" as="sourcePoint" />
            <Array as="points">
              <mxPoint x="440" y="480" />
              <mxPoint x="440" y="500" />
            </Array>
            <mxPoint x="405" y="500" as="targetPoint" />
            <mxPoint as="offset" />
          </mxGeometry>
        </mxCell>
        <mxCell id="aWpefqUCa4IatEm7Ps58-39" value="请求试算利率信息" style="html=1;verticalAlign=bottom;endArrow=block;edgeStyle=elbowEdgeStyle;elbow=vertical;curved=0;rounded=0;" edge="1" parent="1">
          <mxGeometry width="80" relative="1" as="geometry">
            <mxPoint x="405" y="540" as="sourcePoint" />
            <mxPoint x="545" y="540" as="targetPoint" />
            <mxPoint as="offset" />
          </mxGeometry>
        </mxCell>
        <mxCell id="aWpefqUCa4IatEm7Ps58-41" value="查询利率配置信息" style="html=1;verticalAlign=bottom;endArrow=block;edgeStyle=elbowEdgeStyle;elbow=vertical;curved=0;rounded=0;" edge="1" parent="1">
          <mxGeometry width="80" relative="1" as="geometry">
            <mxPoint x="555" y="570" as="sourcePoint" />
            <mxPoint x="705" y="570" as="targetPoint" />
            <mxPoint as="offset" />
          </mxGeometry>
        </mxCell>
        <mxCell id="aWpefqUCa4IatEm7Ps58-42" value="返回利率计算方式信息" style="html=1;verticalAlign=bottom;endArrow=open;dashed=1;endSize=8;edgeStyle=elbowEdgeStyle;elbow=vertical;curved=0;rounded=0;" edge="1" parent="1">
          <mxGeometry relative="1" as="geometry">
            <mxPoint x="705" y="610" as="sourcePoint" />
            <mxPoint x="555" y="610" as="targetPoint" />
          </mxGeometry>
        </mxCell>
        <mxCell id="aWpefqUCa4IatEm7Ps58-43" value="返回利率试算结果" style="html=1;verticalAlign=bottom;endArrow=open;dashed=1;endSize=8;edgeStyle=elbowEdgeStyle;elbow=vertical;curved=0;rounded=0;" edge="1" parent="1">
          <mxGeometry relative="1" as="geometry">
            <mxPoint x="545" y="640" as="sourcePoint" />
            <mxPoint x="405" y="640" as="targetPoint" />
          </mxGeometry>
        </mxCell>
        <mxCell id="aWpefqUCa4IatEm7Ps58-44" value="综合试算，生成还款计划" style="html=1;align=left;spacingLeft=2;endArrow=block;rounded=0;edgeStyle=orthogonalEdgeStyle;curved=0;rounded=0;" edge="1" parent="1">
          <mxGeometry x="-0.8889" y="10" relative="1" as="geometry">
            <mxPoint x="405" y="680" as="sourcePoint" />
            <Array as="points">
              <mxPoint x="440" y="680" />
              <mxPoint x="440" y="700" />
            </Array>
            <mxPoint x="405" y="700" as="targetPoint" />
            <mxPoint as="offset" />
          </mxGeometry>
        </mxCell>
        <mxCell id="aWpefqUCa4IatEm7Ps58-46" value="返回还款计划" style="html=1;verticalAlign=bottom;endArrow=open;dashed=1;endSize=8;edgeStyle=elbowEdgeStyle;elbow=vertical;curved=0;rounded=0;" edge="1" parent="1" source="aWpefqUCa4IatEm7Ps58-16" target="aWpefqUCa4IatEm7Ps58-45">
          <mxGeometry relative="1" as="geometry">
            <mxPoint x="380" y="710" as="sourcePoint" />
            <mxPoint x="120" y="730" as="targetPoint" />
          </mxGeometry>
        </mxCell>
      </root>
    </mxGraphModel>
  </diagram>
</mxfile>
